<svg width="150" height="151" viewBox="0 0 150 151" fill="none" xmlns="http://www.w3.org/2000/svg">
<path d="M135.642 0.491333H14.3579C6.42825 0.491333 0 6.92442 0 14.86V136.236C0 144.171 6.42825 150.604 14.3579 150.604H135.642C143.572 150.604 150 144.171 150 136.236V14.86C150 6.92442 143.572 0.491333 135.642 0.491333Z" fill="black"/>
<path d="M113.027 60.1061V74.2758C110.549 74.0336 107.338 73.4741 103.779 72.1676C99.1306 70.463 95.6723 68.1327 93.4099 66.3272V94.9723L93.3552 94.8829C93.3955 95.4482 93.4099 96.0279 93.4099 96.6105C93.4099 110.838 81.8447 122.418 67.6222 122.418C53.3998 122.418 41.8345 110.838 41.8345 96.6105C41.8345 82.3831 53.3998 70.7976 67.6222 70.7976C69.0113 70.7976 70.3802 70.9101 71.7146 71.1235V85.0913C70.4321 84.6298 69.0574 84.3847 67.6222 84.3847C60.89 84.3847 55.4085 89.8645 55.4085 96.6076C55.4085 103.351 60.89 108.831 67.6222 108.831C74.3545 108.831 79.8359 103.345 79.8359 96.6076C79.8359 96.3538 79.8302 96.1029 79.8129 95.8491V40.1826H93.9662C94.018 41.3824 94.067 42.588 94.1189 43.7907C94.214 46.1528 95.0555 48.4197 96.5167 50.2771C98.2372 52.4603 100.77 54.9955 104.335 57.0201C107.67 58.9121 110.805 59.7254 113.025 60.1061H113.027Z" fill="#FF004F"/>
<path d="M108.166 48.6014V62.7711C105.687 62.5289 102.477 61.9693 98.9174 60.6628C94.2688 58.9583 90.8104 56.6279 88.5481 54.8225V83.4676L88.4933 83.3782C88.5337 83.9435 88.5481 84.5232 88.5481 85.1058C88.5481 99.3332 76.9828 110.913 62.7603 110.913C48.5379 110.913 36.9726 99.3332 36.9726 85.1058C36.9726 70.8784 48.5379 59.2929 62.7603 59.2929C64.1494 59.2929 65.5184 59.4054 66.8527 59.6188V73.5866C65.5702 73.1251 64.1956 72.88 62.7603 72.88C56.0281 72.88 50.5466 78.3598 50.5466 85.1029C50.5466 91.846 56.0281 97.3258 62.7603 97.3258C69.4926 97.3258 74.9741 91.8402 74.9741 85.1029C74.9741 84.8491 74.9683 84.5982 74.951 84.3444V28.6808H89.1043C89.1562 29.8806 89.2052 31.0861 89.257 32.2888C89.3521 34.6509 90.1937 36.9178 91.6577 38.7752C93.3782 40.9585 95.9115 43.4936 99.4765 45.5183C102.811 47.4103 105.946 48.2236 108.166 48.6043V48.6014Z" fill="#00F7EF"/>
<path d="M111.261 54.7964V68.9661C108.782 68.7238 105.572 68.1643 102.013 66.8578C97.364 65.1533 93.9056 62.8229 91.6433 61.0174V89.6625L91.5885 89.5731C91.6289 90.1384 91.6433 90.7181 91.6433 91.3007C91.6433 105.528 80.078 117.108 65.8555 117.108C51.6331 117.108 40.0678 105.528 40.0678 91.3007C40.0678 77.0733 51.6331 65.4878 65.8555 65.4878C67.2446 65.4878 68.6136 65.6003 69.9479 65.8137V79.7815C68.6655 79.3201 67.2908 79.0749 65.8555 79.0749C59.1233 79.0749 53.6418 84.5548 53.6418 91.2979C53.6418 98.0409 59.1233 103.521 65.8555 103.521C72.5878 103.521 78.0693 98.0352 78.0693 91.2979C78.0693 91.044 78.0635 90.7931 78.0462 90.5393V34.8757H92.1995C92.2514 36.0755 92.3004 37.2811 92.3522 38.4838C92.4473 40.8459 93.2889 43.1128 94.75 44.9702C96.4706 47.1534 99.0038 49.6886 102.569 51.7132C105.903 53.6052 109.039 54.4186 111.258 54.7993L111.261 54.7964Z" fill="white"/>
</svg>
