<svg width="150" height="151" viewBox="0 0 150 151" fill="none" xmlns="http://www.w3.org/2000/svg">
<path d="M38.0364 150.071C32.2346 150.007 26.4873 148.942 21.0469 146.924C17.074 145.454 13.4796 143.114 10.5264 140.076C7.48194 137.126 5.14066 133.528 3.67643 129.549C1.66139 124.105 0.598792 118.353 0.535289 112.548C0.089705 102.897 0 100.002 0 75.547C0 51.0921 0.0985284 48.2076 0.530877 38.549C0.602086 32.7458 1.66599 26.9977 3.67643 21.554C5.14779 17.5775 7.48575 13.979 10.5205 11.0197C13.4701 7.97576 17.0662 5.63489 21.0424 4.17053C26.4829 2.1523 32.2301 1.08741 38.032 1.02261C47.6789 0.581106 50.576 0.491333 74.9993 0.491333C99.4226 0.491333 102.318 0.589936 111.969 1.02261C117.77 1.09337 123.515 2.15808 128.956 4.17053C132.931 5.63682 136.526 7.97687 139.477 11.0183C142.517 13.9723 144.856 17.5711 146.322 21.5496C148.339 26.994 149.404 32.7456 149.469 38.5519C149.91 48.2106 150 51.1024 150 75.55C150 99.9975 149.91 102.889 149.469 112.548C149.399 118.353 148.335 124.104 146.322 129.549C144.8 133.498 142.468 137.084 139.477 140.076C136.486 143.069 132.902 145.401 128.956 146.924C123.516 148.942 117.768 150.008 111.967 150.073C102.324 150.514 99.4255 150.604 74.9963 150.604C50.5672 150.604 47.6775 150.519 38.0349 150.073" fill="url(#paint0_radial_7_99)"/>
<path d="M38.0364 150.071C32.2346 150.007 26.4873 148.942 21.0469 146.924C17.074 145.454 13.4796 143.114 10.5264 140.076C7.48194 137.126 5.14066 133.528 3.67643 129.549C1.66139 124.105 0.598792 118.353 0.535289 112.548C0.089705 102.897 0 100.002 0 75.547C0 51.0921 0.0985284 48.2076 0.530877 38.549C0.602086 32.7458 1.66599 26.9977 3.67643 21.554C5.14779 17.5775 7.48575 13.979 10.5205 11.0197C13.4701 7.97576 17.0662 5.63489 21.0424 4.17053C26.4829 2.1523 32.2301 1.08741 38.032 1.02261C47.6789 0.581106 50.576 0.491333 74.9993 0.491333C99.4226 0.491333 102.318 0.589936 111.969 1.02261C117.77 1.09337 123.515 2.15808 128.956 4.17053C132.931 5.63682 136.526 7.97687 139.477 11.0183C142.517 13.9723 144.856 17.5711 146.322 21.5496C148.339 26.994 149.404 32.7456 149.469 38.5519C149.91 48.2106 150 51.1024 150 75.55C150 99.9975 149.91 102.889 149.469 112.548C149.399 118.353 148.335 124.104 146.322 129.549C144.8 133.498 142.468 137.084 139.477 140.076C136.486 143.069 132.902 145.401 128.956 146.924C123.516 148.942 117.768 150.008 111.967 150.073C102.324 150.514 99.4255 150.604 74.9963 150.604C50.5672 150.604 47.6775 150.519 38.0349 150.073" fill="url(#paint1_radial_7_99)"/>
<path d="M56.5833 75.8663C56.5836 72.1898 57.6733 68.5958 59.7146 65.5391C61.756 62.4823 64.6572 60.0999 68.0515 58.6933C71.4458 57.2867 75.1807 56.9189 78.7838 57.6366C82.387 58.3542 85.6965 60.125 88.294 62.7251C90.8915 65.3251 92.6602 68.6376 93.3764 72.2437C94.0927 75.8497 93.7244 79.5873 92.318 82.9838C90.9116 86.3803 88.5303 89.2832 85.4754 91.3253C82.4204 93.3675 78.829 94.4572 75.1552 94.4566C70.2291 94.4558 65.505 92.4968 62.0221 89.0105C58.5393 85.5242 56.5829 80.7961 56.5833 75.8663ZM46.5407 75.8663C46.5407 81.53 48.2189 87.0665 51.3631 91.7756C54.5073 96.4848 58.9763 100.155 64.2049 102.323C69.4335 104.49 75.1869 105.057 80.7375 103.952C86.2882 102.847 91.3868 100.12 95.3886 96.115C99.3904 92.1102 102.116 87.0078 103.22 81.4529C104.324 75.8981 103.757 70.1404 101.591 64.9078C99.4257 59.6753 95.7581 55.203 91.0525 52.0564C86.3468 48.9098 80.8146 47.2304 75.1552 47.2304C71.3974 47.2302 67.6764 47.9707 64.2047 49.4098C60.7329 50.8488 57.5784 52.9581 54.9213 55.6172C52.2641 58.2763 50.1564 61.4332 48.7185 64.9076C47.2805 68.382 46.5405 72.1057 46.5407 75.8663ZM98.2152 46.0957C98.2146 47.4192 98.6062 48.7132 99.3405 49.8139C100.075 50.9147 101.119 51.7729 102.34 52.2799C103.562 52.7869 104.906 52.92 106.204 52.6624C107.501 52.4048 108.692 51.7679 109.628 50.8325C110.564 49.8971 111.201 48.705 111.46 47.407C111.718 46.1091 111.586 44.7635 111.081 43.5406C110.575 42.3176 109.719 41.2721 108.619 40.5363C107.52 39.8006 106.227 39.4075 104.905 39.4069C103.132 39.4077 101.432 40.1126 100.179 41.3667C98.9248 42.6209 98.2197 44.3217 98.2181 46.0957M52.6451 121.26C49.1115 121.221 45.6109 120.574 42.2966 119.347C39.8931 118.42 37.7102 117 35.8883 115.177C34.0665 113.355 32.6462 111.171 31.7188 108.766C30.492 105.449 29.8453 101.946 29.8071 98.4095C29.5365 92.5316 29.4835 90.7656 29.4835 75.8737C29.4835 60.9818 29.5424 59.2202 29.8071 53.3364C29.8499 49.8005 30.4965 46.298 31.7188 42.9802C32.6451 40.5741 34.065 38.3889 35.887 36.5657C37.7089 34.7424 39.8923 33.3214 42.2966 32.3944C45.6107 31.1667 49.1114 30.5195 52.6451 30.4812C58.5185 30.2104 60.2832 30.1574 75.1581 30.1574C90.0329 30.1574 91.7991 30.2148 97.6784 30.4827C101.212 30.5256 104.712 31.1726 108.027 32.3958C110.431 33.323 112.615 34.744 114.436 36.5672C116.258 38.3905 117.678 40.5756 118.605 42.9816C119.831 46.2982 120.478 49.8016 120.516 53.3379C120.787 59.2246 120.84 60.9818 120.84 75.8752C120.84 90.7686 120.786 92.5287 120.516 98.4125C120.475 101.949 119.829 105.451 118.605 108.769C117.677 111.174 116.257 113.358 114.435 115.18C112.613 117.002 110.43 118.423 108.027 119.35C104.713 120.578 101.212 121.225 97.6784 121.263C91.805 121.534 90.0403 121.587 75.1581 121.587C60.2759 121.587 58.5171 121.533 52.6451 121.263M52.1833 20.4399C47.5596 20.5309 42.9848 21.4067 38.654 23.0301C34.9519 24.4625 31.5897 26.6534 28.783 29.4622C25.9763 32.271 23.7871 35.6357 22.3556 39.3407C20.7337 43.6748 19.8586 48.253 19.7675 52.8802C19.4925 58.8258 19.4307 60.7271 19.4307 75.8722C19.4307 91.0173 19.4939 92.9172 19.7675 98.8643C19.8586 103.491 20.7337 108.07 22.3556 112.404C23.7871 116.109 25.9764 119.473 28.7831 122.282C31.5897 125.091 34.9519 127.282 38.654 128.714C42.985 130.337 47.5597 131.213 52.1833 131.305C58.1274 131.575 60.0244 131.642 75.1581 131.642C90.2917 131.642 92.1903 131.578 98.1329 131.305C102.757 131.213 107.331 130.337 111.662 128.714C115.364 127.282 118.726 125.091 121.533 122.282C124.34 119.473 126.529 116.109 127.961 112.404C129.585 108.07 130.46 103.492 130.549 98.8643C130.819 92.9143 130.881 91.0173 130.881 75.8722C130.881 60.7271 130.818 58.8272 130.549 52.8802C130.458 48.253 129.583 43.6748 127.961 39.3407C126.529 35.6365 124.34 32.2722 121.535 29.4635C118.729 26.6548 115.368 24.4635 111.667 23.0301C107.336 21.4057 102.761 20.5298 98.1373 20.4399C92.1947 20.1677 90.2962 20.1029 75.1654 20.1029C60.0347 20.1029 58.1318 20.1662 52.1862 20.4399" fill="white"/>
<defs>
<radialGradient id="paint0_radial_7_99" cx="0" cy="0" r="1" gradientUnits="userSpaceOnUse" gradientTransform="translate(9.70725 147.315) scale(190.442 190.586)">
<stop offset="0.09" stop-color="#FA8F21"/>
<stop offset="0.78" stop-color="#D82D7E"/>
</radialGradient>
<radialGradient id="paint1_radial_7_99" cx="0" cy="0" r="1" gradientUnits="userSpaceOnUse" gradientTransform="translate(103.899 142.494) scale(167.591 167.717)">
<stop offset="0.64" stop-color="#8C3AAA" stop-opacity="0"/>
<stop offset="1" stop-color="#8C3AAA"/>
</radialGradient>
</defs>
</svg>
