<svg width="150" height="151" viewBox="0 0 150 151" fill="none" xmlns="http://www.w3.org/2000/svg">
<path d="M131.25 0.491333H18.75C8.40937 0.491333 0 8.90703 0 19.2554V131.84C0 142.188 8.40937 150.604 18.75 150.604H131.25C141.591 150.604 150 142.188 150 131.84V19.2554C150 8.90703 141.591 0.491333 131.25 0.491333Z" fill="#1976D2"/>
<path fill-rule="evenodd" clip-rule="evenodd" d="M126.563 75.5477H103.125V56.7836C103.125 51.6047 107.325 52.0926 112.5 52.0926H121.875V28.6375H103.125C95.6658 28.6375 88.5121 31.6028 83.2376 36.8813C77.9632 42.1597 75 49.3188 75 56.7836V75.5477H56.25V99.0029H75V150.604H103.125V99.0029H117.188L126.563 75.5477Z" fill="#FAFAFA"/>
</svg>
